# xmcd CD database file
#
# Track frame offsets:
#	150
#	21570
#	44447
#	63992
#	83027
#	99190
#	119342
#	137845
#	156877
#	180922
#	202200
#	221545
#	235590
#	255367
#
# Disc length: 3654 seconds
#
# Revision: 0
# Processed by: cddbd v1.4PL0 Copyright (c) Steve Scherf et al.
# Submitted via: CDex 1.50Beta7
#
DISCID=ba0e440e
DTITLE=Jamie Wight's Portage Jazz Band - Portage Jazz Band Of New Orleans
DYEAR=1900
DGENRE=Jazz
TTITLE0=The Object Of My Affection
TTITLE1=Just A Closer Walk With Thee
TTITLE2=Swanee River
TTITLE3=Some Of These Days
TTITLE4=Mood Indigo
TTITLE5=On A Coconut Island
TTITLE6=You Can Depend On Me
TTITLE7=Mama Inez
TTITLE8=Girl Of My Dreams
TTITLE9=Sugar
TTITLE10=Gloryland
TTITLE11=If I Had You
TTITLE12=Trouble In Mind
TTITLE13=Home Sweet Home
EXTD=
EXTT0=
EXTT1=
EXTT2=
EXTT3=
EXTT4=
EXTT5=
EXTT6=
EXTT7=
EXTT8=
EXTT9=
EXTT10=
EXTT11=
EXTT12=
EXTT13=
PLAYORDER=
